<mxfile host="app.diagrams.net" agent="Mozilla/5.0 (Windows NT 10.0; Win64; x64) AppleWebKit/537.36 (KHTML, like Gecko) Chrome/132.0.0.0 Safari/537.36 OPR/117.0.0.0" version="26.2.12" pages="2">
  <diagram id="prtHgNgQTEPvFCAcTncT" name="Page-1">
    <mxGraphModel grid="1" page="1" gridSize="10" guides="1" tooltips="1" connect="1" arrows="1" fold="1" pageScale="1" pageWidth="3300" pageHeight="4681" math="0" shadow="0">
      <root>
        <mxCell id="0" />
        <mxCell id="1" parent="0" />
        <mxCell id="mYsSGJ8-13ZjClJYV04c-90" style="edgeStyle=orthogonalEdgeStyle;rounded=0;orthogonalLoop=1;jettySize=auto;html=1;exitX=0.01;exitY=1.001;exitDx=0;exitDy=0;exitPerimeter=0;" edge="1" parent="1" source="dNxyNK7c78bLwvsdeMH5-21">
          <mxGeometry relative="1" as="geometry">
            <mxPoint x="40.11764705882365" y="790" as="targetPoint" />
            <Array as="points">
              <mxPoint x="118" y="1691" />
              <mxPoint x="66" y="1690" />
              <mxPoint x="66" y="790" />
            </Array>
          </mxGeometry>
        </mxCell>
        <mxCell id="dNxyNK7c78bLwvsdeMH5-19" value="Sets&lt;br&gt;" style="swimlane;html=1;childLayout=stackLayout;resizeParent=1;resizeParentMax=0;horizontal=0;startSize=20;horizontalStack=0;rounded=1;" vertex="1" parent="1">
          <mxGeometry x="90" y="90" width="2120" height="1600" as="geometry" />
        </mxCell>
        <mxCell id="5bx6YXuGVPjFUvGlG12I-29" value="" style="edgeStyle=orthogonalEdgeStyle;rounded=1;orthogonalLoop=1;jettySize=auto;html=1;" edge="1" parent="dNxyNK7c78bLwvsdeMH5-19" source="5bx6YXuGVPjFUvGlG12I-26" target="5bx6YXuGVPjFUvGlG12I-28">
          <mxGeometry relative="1" as="geometry" />
        </mxCell>
        <mxCell id="5bx6YXuGVPjFUvGlG12I-50" value="" style="edgeStyle=orthogonalEdgeStyle;rounded=1;orthogonalLoop=1;jettySize=auto;html=1;" edge="1" parent="dNxyNK7c78bLwvsdeMH5-19" target="5bx6YXuGVPjFUvGlG12I-49">
          <mxGeometry relative="1" as="geometry">
            <mxPoint x="600" y="370" as="sourcePoint" />
          </mxGeometry>
        </mxCell>
        <mxCell id="mYsSGJ8-13ZjClJYV04c-37" value="" style="endArrow=classic;html=1;rounded=0;entryX=0.457;entryY=0.94;entryDx=0;entryDy=0;entryPerimeter=0;exitX=0.5;exitY=0;exitDx=0;exitDy=0;" edge="1" parent="dNxyNK7c78bLwvsdeMH5-19" source="5bx6YXuGVPjFUvGlG12I-35" target="5bx6YXuGVPjFUvGlG12I-37">
          <mxGeometry width="50" height="50" relative="1" as="geometry">
            <mxPoint x="470" y="527" as="sourcePoint" />
            <mxPoint x="520" y="477" as="targetPoint" />
          </mxGeometry>
        </mxCell>
        <mxCell id="PdhqAu_Ncj2ry6hg3tuX-19" value="" style="edgeStyle=orthogonalEdgeStyle;rounded=0;orthogonalLoop=1;jettySize=auto;html=1;" edge="1" parent="dNxyNK7c78bLwvsdeMH5-19" source="PdhqAu_Ncj2ry6hg3tuX-8" target="PdhqAu_Ncj2ry6hg3tuX-18">
          <mxGeometry relative="1" as="geometry" />
        </mxCell>
        <mxCell id="mYsSGJ8-13ZjClJYV04c-42" value="" style="endArrow=classic;html=1;rounded=0;entryX=0.5;entryY=1;entryDx=0;entryDy=0;exitX=0.25;exitY=0;exitDx=0;exitDy=0;" edge="1" parent="dNxyNK7c78bLwvsdeMH5-19" source="jr5bJzrvSQbN8pC3b32j-1" target="mYsSGJ8-13ZjClJYV04c-7">
          <mxGeometry width="50" height="50" relative="1" as="geometry">
            <mxPoint x="890" y="545" as="sourcePoint" />
            <mxPoint x="970" y="499.5" as="targetPoint" />
          </mxGeometry>
        </mxCell>
        <mxCell id="PdhqAu_Ncj2ry6hg3tuX-25" value="" style="edgeStyle=orthogonalEdgeStyle;rounded=0;orthogonalLoop=1;jettySize=auto;html=1;" edge="1" parent="dNxyNK7c78bLwvsdeMH5-19" source="PdhqAu_Ncj2ry6hg3tuX-20" target="PdhqAu_Ncj2ry6hg3tuX-24">
          <mxGeometry relative="1" as="geometry" />
        </mxCell>
        <mxCell id="mYsSGJ8-13ZjClJYV04c-22" value="" style="edgeStyle=orthogonalEdgeStyle;rounded=0;orthogonalLoop=1;jettySize=auto;html=1;" edge="1" parent="dNxyNK7c78bLwvsdeMH5-19" source="mYsSGJ8-13ZjClJYV04c-19" target="mYsSGJ8-13ZjClJYV04c-21">
          <mxGeometry relative="1" as="geometry" />
        </mxCell>
        <mxCell id="mYsSGJ8-13ZjClJYV04c-28" value="" style="edgeStyle=orthogonalEdgeStyle;rounded=0;orthogonalLoop=1;jettySize=auto;html=1;" edge="1" parent="dNxyNK7c78bLwvsdeMH5-19" source="mYsSGJ8-13ZjClJYV04c-23" target="mYsSGJ8-13ZjClJYV04c-27">
          <mxGeometry relative="1" as="geometry" />
        </mxCell>
        <mxCell id="PdhqAu_Ncj2ry6hg3tuX-28" value="" style="edgeStyle=orthogonalEdgeStyle;rounded=0;orthogonalLoop=1;jettySize=auto;html=1;" edge="1" parent="dNxyNK7c78bLwvsdeMH5-19" source="PdhqAu_Ncj2ry6hg3tuX-26" target="PdhqAu_Ncj2ry6hg3tuX-27">
          <mxGeometry relative="1" as="geometry" />
        </mxCell>
        <mxCell id="PdhqAu_Ncj2ry6hg3tuX-31" value="" style="edgeStyle=orthogonalEdgeStyle;rounded=0;orthogonalLoop=1;jettySize=auto;html=1;" edge="1" parent="dNxyNK7c78bLwvsdeMH5-19" source="PdhqAu_Ncj2ry6hg3tuX-27" target="PdhqAu_Ncj2ry6hg3tuX-30">
          <mxGeometry relative="1" as="geometry" />
        </mxCell>
        <mxCell id="PdhqAu_Ncj2ry6hg3tuX-37" value="" style="edgeStyle=orthogonalEdgeStyle;rounded=0;orthogonalLoop=1;jettySize=auto;html=1;" edge="1" parent="dNxyNK7c78bLwvsdeMH5-19" source="PdhqAu_Ncj2ry6hg3tuX-11" target="PdhqAu_Ncj2ry6hg3tuX-36">
          <mxGeometry relative="1" as="geometry" />
        </mxCell>
        <mxCell id="PdhqAu_Ncj2ry6hg3tuX-46" value="" style="edgeStyle=orthogonalEdgeStyle;rounded=0;orthogonalLoop=1;jettySize=auto;html=1;" edge="1" parent="dNxyNK7c78bLwvsdeMH5-19" source="PdhqAu_Ncj2ry6hg3tuX-38" target="PdhqAu_Ncj2ry6hg3tuX-45">
          <mxGeometry relative="1" as="geometry">
            <Array as="points">
              <mxPoint x="1150" y="880" />
              <mxPoint x="1150" y="880" />
            </Array>
          </mxGeometry>
        </mxCell>
        <mxCell id="PdhqAu_Ncj2ry6hg3tuX-70" style="edgeStyle=orthogonalEdgeStyle;rounded=0;orthogonalLoop=1;jettySize=auto;html=1;" edge="1" parent="dNxyNK7c78bLwvsdeMH5-19" target="PdhqAu_Ncj2ry6hg3tuX-71">
          <mxGeometry relative="1" as="geometry">
            <mxPoint x="1413.5" y="750" as="targetPoint" />
            <mxPoint x="1380" y="872" as="sourcePoint" />
          </mxGeometry>
        </mxCell>
        <mxCell id="mYsSGJ8-13ZjClJYV04c-84" value="" style="endArrow=classic;html=1;rounded=0;entryX=0.5;entryY=1;entryDx=0;entryDy=0;" edge="1" parent="dNxyNK7c78bLwvsdeMH5-19" target="mYsSGJ8-13ZjClJYV04c-74">
          <mxGeometry width="50" height="50" relative="1" as="geometry">
            <mxPoint x="1380" y="1070" as="sourcePoint" />
            <mxPoint x="1909.9799999999996" y="1052.4999999999998" as="targetPoint" />
            <Array as="points">
              <mxPoint x="1380" y="1120" />
              <mxPoint x="1930" y="1120" />
            </Array>
          </mxGeometry>
        </mxCell>
        <mxCell id="mYsSGJ8-13ZjClJYV04c-85" value="&lt;span style=&quot;font-size: 15px;&quot;&gt;NO&lt;/span&gt;" style="edgeLabel;html=1;align=center;verticalAlign=middle;resizable=0;points=[];" connectable="0" vertex="1" parent="mYsSGJ8-13ZjClJYV04c-84">
          <mxGeometry x="-0.5787" y="-4" relative="1" as="geometry">
            <mxPoint x="-16" y="-280" as="offset" />
          </mxGeometry>
        </mxCell>
        <mxCell id="dNxyNK7c78bLwvsdeMH5-20" value="Propietario" style="swimlane;html=1;startSize=20;horizontal=0;rounded=1;arcSize=0;" vertex="1" parent="dNxyNK7c78bLwvsdeMH5-19">
          <mxGeometry x="20" width="2100" height="910" as="geometry" />
        </mxCell>
        <mxCell id="dNxyNK7c78bLwvsdeMH5-25" value="" style="edgeStyle=orthogonalEdgeStyle;rounded=1;orthogonalLoop=1;jettySize=auto;html=1;" edge="1" parent="dNxyNK7c78bLwvsdeMH5-20" source="dNxyNK7c78bLwvsdeMH5-23">
          <mxGeometry relative="1" as="geometry">
            <mxPoint x="120" y="60" as="targetPoint" />
          </mxGeometry>
        </mxCell>
        <mxCell id="dNxyNK7c78bLwvsdeMH5-23" value="inicio" style="ellipse;whiteSpace=wrap;html=1;fillColor=#d5e8d4;strokeColor=#82b366;rounded=1;" vertex="1" parent="dNxyNK7c78bLwvsdeMH5-20">
          <mxGeometry x="40" y="40" width="40" height="40" as="geometry" />
        </mxCell>
        <mxCell id="5bx6YXuGVPjFUvGlG12I-1" value="Revisar el horario&amp;nbsp; de atenciÃ³n del Gestor" style="rounded=1;whiteSpace=wrap;html=1;" vertex="1" parent="dNxyNK7c78bLwvsdeMH5-20">
          <mxGeometry x="120" y="35" width="110" height="50" as="geometry" />
        </mxCell>
        <mxCell id="5bx6YXuGVPjFUvGlG12I-5" value="" style="edgeStyle=orthogonalEdgeStyle;rounded=1;orthogonalLoop=1;jettySize=auto;html=1;entryX=0.5;entryY=0;entryDx=0;entryDy=0;" edge="1" parent="dNxyNK7c78bLwvsdeMH5-20" source="KOkm-WaUwvO928opWfna-1" target="5bx6YXuGVPjFUvGlG12I-6">
          <mxGeometry relative="1" as="geometry" />
        </mxCell>
        <mxCell id="mYsSGJ8-13ZjClJYV04c-103" value="&lt;font style=&quot;font-size: 15px;&quot;&gt;SI&lt;/font&gt;" style="edgeLabel;html=1;align=center;verticalAlign=middle;resizable=0;points=[];" connectable="0" vertex="1" parent="5bx6YXuGVPjFUvGlG12I-5">
          <mxGeometry x="-0.3116" y="-2" relative="1" as="geometry">
            <mxPoint as="offset" />
          </mxGeometry>
        </mxCell>
        <mxCell id="KOkm-WaUwvO928opWfna-1" value="Disponibilidad&lt;br&gt;" style="rhombus;whiteSpace=wrap;html=1;rounded=1;" vertex="1" parent="dNxyNK7c78bLwvsdeMH5-20">
          <mxGeometry x="272" y="25" width="85" height="70" as="geometry" />
        </mxCell>
        <mxCell id="5bx6YXuGVPjFUvGlG12I-14" value="" style="edgeStyle=orthogonalEdgeStyle;rounded=1;orthogonalLoop=1;jettySize=auto;html=1;entryX=0.5;entryY=0;entryDx=0;entryDy=0;" edge="1" parent="dNxyNK7c78bLwvsdeMH5-20" source="5bx6YXuGVPjFUvGlG12I-6" target="5bx6YXuGVPjFUvGlG12I-26">
          <mxGeometry relative="1" as="geometry">
            <mxPoint x="630" y="110" as="targetPoint" />
          </mxGeometry>
        </mxCell>
        <mxCell id="5bx6YXuGVPjFUvGlG12I-6" value="Agendar cita&lt;br&gt;" style="rounded=1;whiteSpace=wrap;html=1;fillColor=#1ba1e2;fontColor=#ffffff;strokeColor=#006EAF;" vertex="1" parent="dNxyNK7c78bLwvsdeMH5-20">
          <mxGeometry x="237" y="145" width="120" height="50" as="geometry" />
        </mxCell>
        <mxCell id="5bx6YXuGVPjFUvGlG12I-26" value="esperar" style="ellipse;whiteSpace=wrap;html=1;aspect=fixed;rounded=1;" vertex="1" parent="dNxyNK7c78bLwvsdeMH5-20">
          <mxGeometry x="272" y="255" width="50" height="50" as="geometry" />
        </mxCell>
        <mxCell id="5bx6YXuGVPjFUvGlG12I-37" value="&lt;font style=&quot;font-size: 10px;&quot;&gt;pregunta&amp;nbsp;&lt;/font&gt;&lt;div&gt;&lt;font style=&quot;font-size: 10px;&quot;&gt;por cita en porterÃ­a&lt;/font&gt;&lt;/div&gt;" style="rhombus;whiteSpace=wrap;html=1;rounded=1;" vertex="1" parent="dNxyNK7c78bLwvsdeMH5-20">
          <mxGeometry x="410" y="230" width="80" height="85" as="geometry" />
        </mxCell>
        <mxCell id="5bx6YXuGVPjFUvGlG12I-38" value="Va a la cita" style="rounded=1;whiteSpace=wrap;html=1;" vertex="1" parent="dNxyNK7c78bLwvsdeMH5-20">
          <mxGeometry x="420" y="100" width="120" height="60" as="geometry" />
        </mxCell>
        <mxCell id="jr5bJzrvSQbN8pC3b32j-3" value="" style="endArrow=classic;html=1;rounded=1;" edge="1" parent="dNxyNK7c78bLwvsdeMH5-20" target="PdhqAu_Ncj2ry6hg3tuX-3">
          <mxGeometry width="50" height="50" relative="1" as="geometry">
            <mxPoint x="540" y="140" as="sourcePoint" />
            <mxPoint x="580" y="215" as="targetPoint" />
            <Array as="points">
              <mxPoint x="590" y="140" />
            </Array>
          </mxGeometry>
        </mxCell>
        <mxCell id="rgIxrNhpCXEa3y_r8Vri-3" value="" style="endArrow=classic;html=1;rounded=1;exitX=0.5;exitY=0;exitDx=0;exitDy=0;entryX=0.25;entryY=1;entryDx=0;entryDy=0;" edge="1" parent="dNxyNK7c78bLwvsdeMH5-20" source="5bx6YXuGVPjFUvGlG12I-37" target="5bx6YXuGVPjFUvGlG12I-38">
          <mxGeometry width="50" height="50" relative="1" as="geometry">
            <mxPoint x="920" y="180" as="sourcePoint" />
            <mxPoint x="970" y="130" as="targetPoint" />
          </mxGeometry>
        </mxCell>
        <mxCell id="mYsSGJ8-13ZjClJYV04c-54" value="SI" style="edgeLabel;html=1;align=center;verticalAlign=middle;resizable=0;points=[];" connectable="0" vertex="1" parent="rgIxrNhpCXEa3y_r8Vri-3">
          <mxGeometry x="-0.0373" relative="1" as="geometry">
            <mxPoint as="offset" />
          </mxGeometry>
        </mxCell>
        <mxCell id="mYsSGJ8-13ZjClJYV04c-33" value="" style="endArrow=classic;html=1;rounded=0;entryX=0.088;entryY=0.565;entryDx=0;entryDy=0;entryPerimeter=0;exitX=1;exitY=0.5;exitDx=0;exitDy=0;" edge="1" parent="dNxyNK7c78bLwvsdeMH5-20" source="5bx6YXuGVPjFUvGlG12I-26" target="5bx6YXuGVPjFUvGlG12I-37">
          <mxGeometry width="50" height="50" relative="1" as="geometry">
            <mxPoint x="525" y="160" as="sourcePoint" />
            <mxPoint x="575" y="110" as="targetPoint" />
          </mxGeometry>
        </mxCell>
        <mxCell id="mYsSGJ8-13ZjClJYV04c-35" value="" style="endArrow=classic;html=1;rounded=0;" edge="1" parent="dNxyNK7c78bLwvsdeMH5-20" source="5bx6YXuGVPjFUvGlG12I-1">
          <mxGeometry width="50" height="50" relative="1" as="geometry">
            <mxPoint x="225" y="110" as="sourcePoint" />
            <mxPoint x="275" y="60" as="targetPoint" />
          </mxGeometry>
        </mxCell>
        <mxCell id="mYsSGJ8-13ZjClJYV04c-96" value="" style="endArrow=classic;html=1;rounded=0;exitX=0.506;exitY=0.049;exitDx=0;exitDy=0;entryX=0;entryY=0.5;entryDx=0;entryDy=0;exitPerimeter=0;" edge="1" parent="dNxyNK7c78bLwvsdeMH5-20" source="KOkm-WaUwvO928opWfna-1">
          <mxGeometry width="50" height="50" relative="1" as="geometry">
            <mxPoint x="314.5" y="30" as="sourcePoint" />
            <mxPoint x="1870" y="568.25" as="targetPoint" />
            <Array as="points">
              <mxPoint x="1840" y="35" />
              <mxPoint x="1840" y="515" />
            </Array>
          </mxGeometry>
        </mxCell>
        <mxCell id="mYsSGJ8-13ZjClJYV04c-104" value="&lt;font style=&quot;font-size: 15px;&quot;&gt;NO&lt;/font&gt;" style="edgeLabel;html=1;align=center;verticalAlign=middle;resizable=0;points=[];" connectable="0" vertex="1" parent="mYsSGJ8-13ZjClJYV04c-96">
          <mxGeometry x="-0.8265" y="-1" relative="1" as="geometry">
            <mxPoint as="offset" />
          </mxGeometry>
        </mxCell>
        <mxCell id="PdhqAu_Ncj2ry6hg3tuX-9" value="" style="edgeStyle=orthogonalEdgeStyle;rounded=0;orthogonalLoop=1;jettySize=auto;html=1;" edge="1" parent="dNxyNK7c78bLwvsdeMH5-20" source="PdhqAu_Ncj2ry6hg3tuX-3" target="PdhqAu_Ncj2ry6hg3tuX-8">
          <mxGeometry relative="1" as="geometry">
            <Array as="points">
              <mxPoint x="680" y="240" />
            </Array>
          </mxGeometry>
        </mxCell>
        <mxCell id="PdhqAu_Ncj2ry6hg3tuX-12" value="" style="edgeStyle=orthogonalEdgeStyle;rounded=0;orthogonalLoop=1;jettySize=auto;html=1;" edge="1" parent="dNxyNK7c78bLwvsdeMH5-20" source="PdhqAu_Ncj2ry6hg3tuX-3" target="PdhqAu_Ncj2ry6hg3tuX-11">
          <mxGeometry relative="1" as="geometry">
            <Array as="points">
              <mxPoint x="760" y="220" />
            </Array>
          </mxGeometry>
        </mxCell>
        <mxCell id="PdhqAu_Ncj2ry6hg3tuX-3" value="pregunta por" style="rhombus;whiteSpace=wrap;html=1;" vertex="1" parent="dNxyNK7c78bLwvsdeMH5-20">
          <mxGeometry x="550" y="200" width="80" height="80" as="geometry" />
        </mxCell>
        <mxCell id="PdhqAu_Ncj2ry6hg3tuX-4" value="disponibilidad de zonas comunes" style="rounded=1;whiteSpace=wrap;html=1;" vertex="1" parent="dNxyNK7c78bLwvsdeMH5-20">
          <mxGeometry x="520" y="305" width="120" height="60" as="geometry" />
        </mxCell>
        <mxCell id="PdhqAu_Ncj2ry6hg3tuX-5" value="" style="edgeStyle=orthogonalEdgeStyle;rounded=0;orthogonalLoop=1;jettySize=auto;html=1;" edge="1" parent="dNxyNK7c78bLwvsdeMH5-20" source="PdhqAu_Ncj2ry6hg3tuX-3" target="PdhqAu_Ncj2ry6hg3tuX-4">
          <mxGeometry relative="1" as="geometry" />
        </mxCell>
        <mxCell id="PdhqAu_Ncj2ry6hg3tuX-8" value="- disponibilidad de parqueaderos" style="rounded=1;whiteSpace=wrap;html=1;" vertex="1" parent="dNxyNK7c78bLwvsdeMH5-20">
          <mxGeometry x="620" y="390" width="120" height="60" as="geometry" />
        </mxCell>
        <mxCell id="mYsSGJ8-13ZjClJYV04c-12" value="" style="edgeStyle=orthogonalEdgeStyle;rounded=0;orthogonalLoop=1;jettySize=auto;html=1;" edge="1" parent="dNxyNK7c78bLwvsdeMH5-20" source="jr5bJzrvSQbN8pC3b32j-11" target="mYsSGJ8-13ZjClJYV04c-11">
          <mxGeometry relative="1" as="geometry" />
        </mxCell>
        <mxCell id="mYsSGJ8-13ZjClJYV04c-18" value="" style="edgeStyle=orthogonalEdgeStyle;rounded=0;orthogonalLoop=1;jettySize=auto;html=1;" edge="1" parent="dNxyNK7c78bLwvsdeMH5-20" source="mYsSGJ8-13ZjClJYV04c-11" target="mYsSGJ8-13ZjClJYV04c-17">
          <mxGeometry relative="1" as="geometry" />
        </mxCell>
        <mxCell id="5bx6YXuGVPjFUvGlG12I-41" value="No" style="text;html=1;align=center;verticalAlign=middle;whiteSpace=wrap;rounded=1;" vertex="1" parent="dNxyNK7c78bLwvsdeMH5-20">
          <mxGeometry x="890" width="60" height="30" as="geometry" />
        </mxCell>
        <mxCell id="5bx6YXuGVPjFUvGlG12I-42" value="Si" style="text;html=1;align=center;verticalAlign=middle;whiteSpace=wrap;rounded=1;" vertex="1" parent="dNxyNK7c78bLwvsdeMH5-20">
          <mxGeometry x="1020" y="60" width="60" height="30" as="geometry" />
        </mxCell>
        <mxCell id="jr5bJzrvSQbN8pC3b32j-11" value="le dice al administrador la fecha y hora que dispone de las zonas comunes&amp;nbsp;" style="whiteSpace=wrap;html=1;rounded=1;" vertex="1" parent="dNxyNK7c78bLwvsdeMH5-20">
          <mxGeometry x="930" y="190" width="130" height="65" as="geometry" />
        </mxCell>
        <mxCell id="saGvCJU_Vm6FPGzSCkna-2" value="no" style="text;html=1;align=center;verticalAlign=middle;whiteSpace=wrap;rounded=1;" vertex="1" parent="dNxyNK7c78bLwvsdeMH5-20">
          <mxGeometry x="1480" y="110" width="60" height="30" as="geometry" />
        </mxCell>
        <mxCell id="mYsSGJ8-13ZjClJYV04c-7" value="revisa si le sirven&lt;div&gt;&amp;nbsp;l&lt;span style=&quot;background-color: initial;&quot;&gt;os horarios&amp;nbsp;&lt;/span&gt;&lt;/div&gt;&lt;div&gt;&lt;span style=&quot;background-color: initial;&quot;&gt;disponibles&lt;/span&gt;&lt;/div&gt;" style="rhombus;whiteSpace=wrap;html=1;rounded=1;" vertex="1" parent="dNxyNK7c78bLwvsdeMH5-20">
          <mxGeometry x="790" y="70" width="150" height="85" as="geometry" />
        </mxCell>
        <mxCell id="mYsSGJ8-13ZjClJYV04c-20" value="" style="edgeStyle=orthogonalEdgeStyle;rounded=0;orthogonalLoop=1;jettySize=auto;html=1;" edge="1" parent="dNxyNK7c78bLwvsdeMH5-20" source="mYsSGJ8-13ZjClJYV04c-17" target="mYsSGJ8-13ZjClJYV04c-19">
          <mxGeometry relative="1" as="geometry" />
        </mxCell>
        <mxCell id="mYsSGJ8-13ZjClJYV04c-68" value="si" style="edgeLabel;html=1;align=center;verticalAlign=middle;resizable=0;points=[];" connectable="0" vertex="1" parent="mYsSGJ8-13ZjClJYV04c-20">
          <mxGeometry x="-0.1332" y="3" relative="1" as="geometry">
            <mxPoint as="offset" />
          </mxGeometry>
        </mxCell>
        <mxCell id="mYsSGJ8-13ZjClJYV04c-69" value="SI" style="edgeLabel;html=1;align=center;verticalAlign=middle;resizable=0;points=[];" connectable="0" vertex="1" parent="mYsSGJ8-13ZjClJYV04c-20">
          <mxGeometry x="0.0291" y="1" relative="1" as="geometry">
            <mxPoint as="offset" />
          </mxGeometry>
        </mxCell>
        <mxCell id="mYsSGJ8-13ZjClJYV04c-17" value="llena el fornulario&amp;nbsp;" style="rhombus;whiteSpace=wrap;html=1;rounded=1;" vertex="1" parent="dNxyNK7c78bLwvsdeMH5-20">
          <mxGeometry x="1187" y="177.5" width="80" height="80" as="geometry" />
        </mxCell>
        <mxCell id="mYsSGJ8-13ZjClJYV04c-19" value="lo envÃ­a a administraciÃ³n&amp;nbsp;" style="whiteSpace=wrap;html=1;rounded=1;" vertex="1" parent="dNxyNK7c78bLwvsdeMH5-20">
          <mxGeometry x="1167" y="45" width="120" height="60" as="geometry" />
        </mxCell>
        <mxCell id="mYsSGJ8-13ZjClJYV04c-30" value="" style="edgeStyle=orthogonalEdgeStyle;rounded=0;orthogonalLoop=1;jettySize=auto;html=1;" edge="1" parent="dNxyNK7c78bLwvsdeMH5-20" source="mYsSGJ8-13ZjClJYV04c-27" target="mYsSGJ8-13ZjClJYV04c-29">
          <mxGeometry relative="1" as="geometry" />
        </mxCell>
        <mxCell id="mYsSGJ8-13ZjClJYV04c-71" value="SI" style="edgeLabel;html=1;align=center;verticalAlign=middle;resizable=0;points=[];" connectable="0" vertex="1" parent="mYsSGJ8-13ZjClJYV04c-30">
          <mxGeometry x="-0.5628" y="2" relative="1" as="geometry">
            <mxPoint as="offset" />
          </mxGeometry>
        </mxCell>
        <mxCell id="mYsSGJ8-13ZjClJYV04c-82" value="&lt;span style=&quot;font-size: 15px;&quot;&gt;SI&lt;/span&gt;" style="edgeLabel;html=1;align=center;verticalAlign=middle;resizable=0;points=[];" connectable="0" vertex="1" parent="mYsSGJ8-13ZjClJYV04c-30">
          <mxGeometry x="-0.5386" y="-3" relative="1" as="geometry">
            <mxPoint as="offset" />
          </mxGeometry>
        </mxCell>
        <mxCell id="mYsSGJ8-13ZjClJYV04c-27" value="recoge la confirmaciÃ³n&amp;nbsp;" style="rhombus;whiteSpace=wrap;html=1;rounded=1;" vertex="1" parent="dNxyNK7c78bLwvsdeMH5-20">
          <mxGeometry x="1460" y="80" width="117" height="80" as="geometry" />
        </mxCell>
        <mxCell id="mYsSGJ8-13ZjClJYV04c-29" value="puede utilizar la zona comÃºn" style="whiteSpace=wrap;html=1;rounded=1;" vertex="1" parent="dNxyNK7c78bLwvsdeMH5-20">
          <mxGeometry x="1680" y="90" width="120" height="60" as="geometry" />
        </mxCell>
        <mxCell id="mYsSGJ8-13ZjClJYV04c-46" value="" style="endArrow=classic;html=1;rounded=0;entryX=0.608;entryY=-0.062;entryDx=0;entryDy=0;entryPerimeter=0;" edge="1" parent="dNxyNK7c78bLwvsdeMH5-20" source="mYsSGJ8-13ZjClJYV04c-7" target="jr5bJzrvSQbN8pC3b32j-11">
          <mxGeometry width="50" height="50" relative="1" as="geometry">
            <mxPoint x="920" y="107.5" as="sourcePoint" />
            <mxPoint x="970" y="57.5" as="targetPoint" />
            <Array as="points">
              <mxPoint x="1010" y="110" />
            </Array>
          </mxGeometry>
        </mxCell>
        <mxCell id="mYsSGJ8-13ZjClJYV04c-66" value="SI" style="edgeLabel;html=1;align=center;verticalAlign=middle;resizable=0;points=[];" connectable="0" vertex="1" parent="mYsSGJ8-13ZjClJYV04c-46">
          <mxGeometry x="-0.1197" y="2" relative="1" as="geometry">
            <mxPoint as="offset" />
          </mxGeometry>
        </mxCell>
        <mxCell id="mYsSGJ8-13ZjClJYV04c-75" value="" style="endArrow=classic;html=1;rounded=0;" edge="1" parent="dNxyNK7c78bLwvsdeMH5-20">
          <mxGeometry width="50" height="50" relative="1" as="geometry">
            <mxPoint x="1520" y="90" as="sourcePoint" />
            <mxPoint x="1900" y="530" as="targetPoint" />
            <Array as="points">
              <mxPoint x="1520" y="20" />
              <mxPoint x="1900" y="20" />
            </Array>
          </mxGeometry>
        </mxCell>
        <mxCell id="mYsSGJ8-13ZjClJYV04c-81" value="&lt;font size=&quot;1&quot;&gt;NO&lt;/font&gt;" style="edgeLabel;html=1;align=center;verticalAlign=middle;resizable=0;points=[];" connectable="0" vertex="1" parent="mYsSGJ8-13ZjClJYV04c-75">
          <mxGeometry x="-0.4347" relative="1" as="geometry">
            <mxPoint as="offset" />
          </mxGeometry>
        </mxCell>
        <mxCell id="mYsSGJ8-13ZjClJYV04c-88" value="" style="endArrow=classic;html=1;rounded=0;" edge="1" parent="dNxyNK7c78bLwvsdeMH5-20">
          <mxGeometry width="50" height="50" relative="1" as="geometry">
            <mxPoint x="1260" y="222.5" as="sourcePoint" />
            <mxPoint x="1910" y="500" as="targetPoint" />
            <Array as="points">
              <mxPoint x="1300" y="223" />
              <mxPoint x="1300" y="590" />
              <mxPoint x="1910" y="590" />
            </Array>
          </mxGeometry>
        </mxCell>
        <mxCell id="mYsSGJ8-13ZjClJYV04c-89" value="&lt;span style=&quot;font-size: 15px;&quot;&gt;NO&lt;/span&gt;" style="edgeLabel;html=1;align=center;verticalAlign=middle;resizable=0;points=[];" connectable="0" vertex="1" parent="mYsSGJ8-13ZjClJYV04c-88">
          <mxGeometry x="-0.8085" y="4" relative="1" as="geometry">
            <mxPoint as="offset" />
          </mxGeometry>
        </mxCell>
        <mxCell id="mYsSGJ8-13ZjClJYV04c-93" value="" style="endArrow=classic;html=1;rounded=0;entryX=0.767;entryY=-0.024;entryDx=0;entryDy=0;entryPerimeter=0;" edge="1" parent="dNxyNK7c78bLwvsdeMH5-20" source="mYsSGJ8-13ZjClJYV04c-7" target="mYsSGJ8-13ZjClJYV04c-74">
          <mxGeometry width="50" height="50" relative="1" as="geometry">
            <mxPoint x="870" y="70" as="sourcePoint" />
            <mxPoint x="1940" y="430" as="targetPoint" />
            <Array as="points">
              <mxPoint x="870" y="10" />
              <mxPoint x="1920" y="10" />
              <mxPoint x="1920" y="450" />
            </Array>
          </mxGeometry>
        </mxCell>
        <mxCell id="rgIxrNhpCXEa3y_r8Vri-10" value="" style="endArrow=classic;html=1;rounded=1;exitX=1;exitY=0.5;exitDx=0;exitDy=0;" edge="1" parent="dNxyNK7c78bLwvsdeMH5-20">
          <mxGeometry width="50" height="50" relative="1" as="geometry">
            <mxPoint x="2180" y="471.25" as="sourcePoint" />
            <mxPoint x="2179.090909090909" y="471.590909090909" as="targetPoint" />
          </mxGeometry>
        </mxCell>
        <mxCell id="mYsSGJ8-13ZjClJYV04c-11" value="pide llenar formulario para saber sobre la informaciÃ³n para que solicita la zona comÃºn" style="rounded=1;whiteSpace=wrap;html=1;" vertex="1" parent="dNxyNK7c78bLwvsdeMH5-20">
          <mxGeometry x="1042" y="417.5" width="125" height="65" as="geometry" />
        </mxCell>
        <mxCell id="mYsSGJ8-13ZjClJYV04c-74" value="FIN" style="ellipse;whiteSpace=wrap;html=1;fillColor=#f8cecc;strokeColor=#b85450;" vertex="1" parent="dNxyNK7c78bLwvsdeMH5-20">
          <mxGeometry x="1870" y="532" width="60" height="62.5" as="geometry" />
        </mxCell>
        <mxCell id="mYsSGJ8-13ZjClJYV04c-97" value="" style="endArrow=classic;html=1;rounded=0;exitX=0.891;exitY=0.625;exitDx=0;exitDy=0;exitPerimeter=0;entryX=1;entryY=0.608;entryDx=0;entryDy=0;entryPerimeter=0;" edge="1" parent="dNxyNK7c78bLwvsdeMH5-20" source="5bx6YXuGVPjFUvGlG12I-37" target="mYsSGJ8-13ZjClJYV04c-74">
          <mxGeometry width="50" height="50" relative="1" as="geometry">
            <mxPoint x="490" y="275" as="sourcePoint" />
            <mxPoint x="1880" y="640" as="targetPoint" />
            <Array as="points">
              <mxPoint x="520" y="283" />
              <mxPoint x="520" y="670" />
              <mxPoint x="1840" y="660" />
              <mxPoint x="1940" y="660" />
            </Array>
          </mxGeometry>
        </mxCell>
        <mxCell id="mYsSGJ8-13ZjClJYV04c-100" value="&lt;font style=&quot;font-size: 16px;&quot;&gt;NO&lt;/font&gt;" style="edgeLabel;html=1;align=center;verticalAlign=middle;resizable=0;points=[];" connectable="0" vertex="1" parent="mYsSGJ8-13ZjClJYV04c-97">
          <mxGeometry x="-0.9413" y="-3" relative="1" as="geometry">
            <mxPoint y="-1" as="offset" />
          </mxGeometry>
        </mxCell>
        <mxCell id="PdhqAu_Ncj2ry6hg3tuX-11" value="manual de convivencia" style="whiteSpace=wrap;html=1;" vertex="1" parent="dNxyNK7c78bLwvsdeMH5-20">
          <mxGeometry x="680" y="510" width="120" height="60" as="geometry" />
        </mxCell>
        <mxCell id="PdhqAu_Ncj2ry6hg3tuX-24" value="revisa&lt;div&gt;&amp;nbsp;los parqueaderos&lt;div&gt;&amp;nbsp;disponibles&amp;nbsp;&lt;/div&gt;&lt;div&gt;en el horario&amp;nbsp;&lt;/div&gt;&lt;div&gt;que desea&lt;/div&gt;&lt;/div&gt;" style="rhombus;whiteSpace=wrap;html=1;rounded=1;" vertex="1" parent="dNxyNK7c78bLwvsdeMH5-20">
          <mxGeometry x="940" y="510" width="185" height="103.25" as="geometry" />
        </mxCell>
        <mxCell id="PdhqAu_Ncj2ry6hg3tuX-26" value="le dice Gestor la fecha y hora que dispone del parquedero" style="whiteSpace=wrap;html=1;rounded=1;" vertex="1" parent="dNxyNK7c78bLwvsdeMH5-20">
          <mxGeometry x="1150" y="529.5" width="130" height="65" as="geometry" />
        </mxCell>
        <mxCell id="PdhqAu_Ncj2ry6hg3tuX-29" value="" style="endArrow=classic;html=1;rounded=0;exitX=1;exitY=0.5;exitDx=0;exitDy=0;" edge="1" parent="dNxyNK7c78bLwvsdeMH5-20" source="PdhqAu_Ncj2ry6hg3tuX-24" target="PdhqAu_Ncj2ry6hg3tuX-26">
          <mxGeometry width="50" height="50" relative="1" as="geometry">
            <mxPoint x="1280" y="870" as="sourcePoint" />
            <mxPoint x="1330" y="820" as="targetPoint" />
          </mxGeometry>
        </mxCell>
        <mxCell id="PdhqAu_Ncj2ry6hg3tuX-33" value="" style="edgeStyle=orthogonalEdgeStyle;rounded=0;orthogonalLoop=1;jettySize=auto;html=1;" edge="1" parent="dNxyNK7c78bLwvsdeMH5-20" source="PdhqAu_Ncj2ry6hg3tuX-30" target="mYsSGJ8-13ZjClJYV04c-74">
          <mxGeometry relative="1" as="geometry">
            <mxPoint x="1900" y="625" as="targetPoint" />
          </mxGeometry>
        </mxCell>
        <mxCell id="PdhqAu_Ncj2ry6hg3tuX-50" value="" style="edgeStyle=orthogonalEdgeStyle;rounded=0;orthogonalLoop=1;jettySize=auto;html=1;" edge="1" parent="dNxyNK7c78bLwvsdeMH5-20" source="PdhqAu_Ncj2ry6hg3tuX-30" target="PdhqAu_Ncj2ry6hg3tuX-47">
          <mxGeometry relative="1" as="geometry">
            <Array as="points">
              <mxPoint x="1427" y="670" />
              <mxPoint x="1370" y="670" />
              <mxPoint x="1370" y="680" />
            </Array>
          </mxGeometry>
        </mxCell>
        <mxCell id="PdhqAu_Ncj2ry6hg3tuX-30" value="puede ingresar" style="whiteSpace=wrap;html=1;rounded=1;" vertex="1" parent="dNxyNK7c78bLwvsdeMH5-20">
          <mxGeometry x="1367" y="594.5" width="120" height="60" as="geometry" />
        </mxCell>
        <mxCell id="PdhqAu_Ncj2ry6hg3tuX-48" value="" style="edgeStyle=orthogonalEdgeStyle;rounded=0;orthogonalLoop=1;jettySize=auto;html=1;" edge="1" parent="dNxyNK7c78bLwvsdeMH5-20" source="PdhqAu_Ncj2ry6hg3tuX-45" target="PdhqAu_Ncj2ry6hg3tuX-47">
          <mxGeometry relative="1" as="geometry" />
        </mxCell>
        <mxCell id="PdhqAu_Ncj2ry6hg3tuX-45" value="ve el&amp;nbsp;&lt;div&gt;casillero&lt;/div&gt;" style="rhombus;whiteSpace=wrap;html=1;" vertex="1" parent="dNxyNK7c78bLwvsdeMH5-20">
          <mxGeometry x="1090" y="640" width="80" height="80" as="geometry" />
        </mxCell>
        <mxCell id="PdhqAu_Ncj2ry6hg3tuX-49" value="" style="edgeStyle=orthogonalEdgeStyle;rounded=0;orthogonalLoop=1;jettySize=auto;html=1;" edge="1" parent="dNxyNK7c78bLwvsdeMH5-20" source="PdhqAu_Ncj2ry6hg3tuX-47">
          <mxGeometry relative="1" as="geometry">
            <mxPoint x="1900" y="595" as="targetPoint" />
            <Array as="points">
              <mxPoint x="1890" y="680" />
              <mxPoint x="1890" y="625" />
              <mxPoint x="1900" y="625" />
            </Array>
          </mxGeometry>
        </mxCell>
        <mxCell id="PdhqAu_Ncj2ry6hg3tuX-47" value="puede estar informado de las normas" style="rounded=1;whiteSpace=wrap;html=1;" vertex="1" parent="dNxyNK7c78bLwvsdeMH5-20">
          <mxGeometry x="1230" y="650" width="120" height="60" as="geometry" />
        </mxCell>
        <mxCell id="PdhqAu_Ncj2ry6hg3tuX-71" value="realiza el mismo proceso de sacar una cita" style="rounded=1;whiteSpace=wrap;html=1;" vertex="1" parent="dNxyNK7c78bLwvsdeMH5-20">
          <mxGeometry x="1530" y="730" width="120" height="60" as="geometry" />
        </mxCell>
        <mxCell id="PdhqAu_Ncj2ry6hg3tuX-73" value="" style="edgeStyle=orthogonalEdgeStyle;rounded=0;orthogonalLoop=1;jettySize=auto;html=1;exitX=1;exitY=0.5;exitDx=0;exitDy=0;" edge="1" parent="dNxyNK7c78bLwvsdeMH5-20" source="PdhqAu_Ncj2ry6hg3tuX-71">
          <mxGeometry relative="1" as="geometry">
            <mxPoint x="1910" y="594.5" as="targetPoint" />
            <mxPoint x="1660" y="760" as="sourcePoint" />
          </mxGeometry>
        </mxCell>
        <mxCell id="dNxyNK7c78bLwvsdeMH5-21" value="-" style="swimlane;html=1;startSize=20;horizontal=0;rounded=1;arcSize=0;" vertex="1" parent="dNxyNK7c78bLwvsdeMH5-19">
          <mxGeometry x="20" y="910" width="2100" height="690" as="geometry" />
        </mxCell>
        <mxCell id="5bx6YXuGVPjFUvGlG12I-28" value="Confirma la cita" style="rhombus;whiteSpace=wrap;html=1;rounded=1;" vertex="1" parent="dNxyNK7c78bLwvsdeMH5-21">
          <mxGeometry x="257" y="157" width="80" height="80" as="geometry" />
        </mxCell>
        <mxCell id="5bx6YXuGVPjFUvGlG12I-31" value="No" style="text;html=1;align=center;verticalAlign=middle;whiteSpace=wrap;rounded=1;" vertex="1" parent="dNxyNK7c78bLwvsdeMH5-21">
          <mxGeometry x="350" y="45" width="60" height="30" as="geometry" />
        </mxCell>
        <mxCell id="5bx6YXuGVPjFUvGlG12I-49" value="Revisa si hay disponibilidad&amp;nbsp;" style="rhombus;whiteSpace=wrap;html=1;rounded=1;" vertex="1" parent="dNxyNK7c78bLwvsdeMH5-21">
          <mxGeometry x="535" y="127.5" width="90" height="90" as="geometry" />
        </mxCell>
        <mxCell id="mYsSGJ8-13ZjClJYV04c-31" style="edgeStyle=orthogonalEdgeStyle;rounded=0;orthogonalLoop=1;jettySize=auto;html=1;exitX=0.5;exitY=1;exitDx=0;exitDy=0;" edge="1" parent="dNxyNK7c78bLwvsdeMH5-21" source="5bx6YXuGVPjFUvGlG12I-35" target="5bx6YXuGVPjFUvGlG12I-35">
          <mxGeometry relative="1" as="geometry" />
        </mxCell>
        <mxCell id="F0Kff8Rk4O7NZ9NWVxW0-1" value="" style="edgeStyle=orthogonalEdgeStyle;rounded=0;orthogonalLoop=1;jettySize=auto;html=1;" edge="1" parent="dNxyNK7c78bLwvsdeMH5-21" target="5bx6YXuGVPjFUvGlG12I-28">
          <mxGeometry relative="1" as="geometry">
            <mxPoint x="390" y="197" as="sourcePoint" />
          </mxGeometry>
        </mxCell>
        <mxCell id="5bx6YXuGVPjFUvGlG12I-35" value="Envia notificacion a casillero" style="rounded=1;whiteSpace=wrap;html=1;" vertex="1" parent="dNxyNK7c78bLwvsdeMH5-21">
          <mxGeometry x="395" y="174.5" width="110" height="45" as="geometry" />
        </mxCell>
        <mxCell id="mYsSGJ8-13ZjClJYV04c-63" value="" style="endArrow=classic;html=1;rounded=0;exitX=0.912;exitY=0.506;exitDx=0;exitDy=0;exitPerimeter=0;entryX=0.045;entryY=0.511;entryDx=0;entryDy=0;entryPerimeter=0;" edge="1" parent="dNxyNK7c78bLwvsdeMH5-21" target="5bx6YXuGVPjFUvGlG12I-35">
          <mxGeometry width="50" height="50" relative="1" as="geometry">
            <mxPoint x="337.00000000000006" y="197.48000000000002" as="sourcePoint" />
            <mxPoint x="390" y="200" as="targetPoint" />
          </mxGeometry>
        </mxCell>
        <mxCell id="mYsSGJ8-13ZjClJYV04c-64" value="SI" style="edgeLabel;html=1;align=center;verticalAlign=middle;resizable=0;points=[];" connectable="0" vertex="1" parent="mYsSGJ8-13ZjClJYV04c-63">
          <mxGeometry x="-0.2091" y="-5" relative="1" as="geometry">
            <mxPoint x="-1" as="offset" />
          </mxGeometry>
        </mxCell>
        <mxCell id="mYsSGJ8-13ZjClJYV04c-98" value="" style="endArrow=classic;html=1;rounded=0;entryX=1;entryY=1;entryDx=0;entryDy=0;" edge="1" parent="dNxyNK7c78bLwvsdeMH5-21" target="mYsSGJ8-13ZjClJYV04c-74">
          <mxGeometry width="50" height="50" relative="1" as="geometry">
            <mxPoint x="575" y="217.5" as="sourcePoint" />
            <mxPoint x="625" y="167.5" as="targetPoint" />
            <Array as="points">
              <mxPoint x="575" y="287.5" />
              <mxPoint x="1930" y="280" />
            </Array>
          </mxGeometry>
        </mxCell>
        <mxCell id="mYsSGJ8-13ZjClJYV04c-102" value="&lt;font style=&quot;font-size: 15px;&quot;&gt;NO&lt;/font&gt;" style="edgeLabel;html=1;align=center;verticalAlign=middle;resizable=0;points=[];" connectable="0" vertex="1" parent="mYsSGJ8-13ZjClJYV04c-98">
          <mxGeometry x="-0.9043" y="-2" relative="1" as="geometry">
            <mxPoint as="offset" />
          </mxGeometry>
        </mxCell>
        <mxCell id="mYsSGJ8-13ZjClJYV04c-99" value="" style="endArrow=classic;html=1;rounded=0;entryX=1;entryY=0;entryDx=0;entryDy=0;" edge="1" parent="dNxyNK7c78bLwvsdeMH5-21" target="mYsSGJ8-13ZjClJYV04c-74">
          <mxGeometry width="50" height="50" relative="1" as="geometry">
            <mxPoint x="260" y="197.5" as="sourcePoint" />
            <mxPoint x="1810" y="167.5" as="targetPoint" />
            <Array as="points">
              <mxPoint x="260" y="317.5" />
              <mxPoint x="1900" y="317.5" />
              <mxPoint x="2060" y="318" />
              <mxPoint x="2060" y="-150" />
            </Array>
          </mxGeometry>
        </mxCell>
        <mxCell id="mYsSGJ8-13ZjClJYV04c-101" value="&lt;font style=&quot;font-size: 15px;&quot;&gt;NO&lt;/font&gt;" style="edgeLabel;html=1;align=center;verticalAlign=middle;resizable=0;points=[];" connectable="0" vertex="1" parent="mYsSGJ8-13ZjClJYV04c-99">
          <mxGeometry x="-0.9251" y="-3" relative="1" as="geometry">
            <mxPoint as="offset" />
          </mxGeometry>
        </mxCell>
        <mxCell id="PdhqAu_Ncj2ry6hg3tuX-21" value="" style="edgeStyle=orthogonalEdgeStyle;rounded=0;orthogonalLoop=1;jettySize=auto;html=1;" edge="1" parent="dNxyNK7c78bLwvsdeMH5-21" source="PdhqAu_Ncj2ry6hg3tuX-18" target="PdhqAu_Ncj2ry6hg3tuX-20">
          <mxGeometry relative="1" as="geometry" />
        </mxCell>
        <mxCell id="PdhqAu_Ncj2ry6hg3tuX-18" value="revisa disponibilidad de parqueaderos" style="rhombus;whiteSpace=wrap;html=1;rounded=1;" vertex="1" parent="dNxyNK7c78bLwvsdeMH5-21">
          <mxGeometry x="740" y="320" width="150" height="110" as="geometry" />
        </mxCell>
        <mxCell id="jr5bJzrvSQbN8pC3b32j-1" value="muestra fechas disponibles de las zonas comunes" style="rounded=1;whiteSpace=wrap;html=1;" vertex="1" parent="dNxyNK7c78bLwvsdeMH5-21">
          <mxGeometry x="840" y="142.5" width="120" height="60" as="geometry" />
        </mxCell>
        <mxCell id="mYsSGJ8-13ZjClJYV04c-40" value="" style="endArrow=classic;html=1;rounded=0;entryX=0;entryY=0.5;entryDx=0;entryDy=0;exitX=1;exitY=0.5;exitDx=0;exitDy=0;" edge="1" parent="dNxyNK7c78bLwvsdeMH5-21" source="5bx6YXuGVPjFUvGlG12I-49" target="jr5bJzrvSQbN8pC3b32j-1">
          <mxGeometry width="50" height="50" relative="1" as="geometry">
            <mxPoint x="695" y="-55.5" as="sourcePoint" />
            <mxPoint x="745" y="-105.5" as="targetPoint" />
            <Array as="points">
              <mxPoint x="770" y="173" />
            </Array>
          </mxGeometry>
        </mxCell>
        <mxCell id="mYsSGJ8-13ZjClJYV04c-65" value="SI" style="edgeLabel;html=1;align=center;verticalAlign=middle;resizable=0;points=[];" connectable="0" vertex="1" parent="mYsSGJ8-13ZjClJYV04c-40">
          <mxGeometry x="-0.4588" y="-1" relative="1" as="geometry">
            <mxPoint as="offset" />
          </mxGeometry>
        </mxCell>
        <mxCell id="PdhqAu_Ncj2ry6hg3tuX-20" value="muestra disponibilidad de parqueaderos en la fecha que necesita" style="whiteSpace=wrap;html=1;rounded=1;" vertex="1" parent="dNxyNK7c78bLwvsdeMH5-21">
          <mxGeometry x="977.5" y="345" width="120" height="60" as="geometry" />
        </mxCell>
        <mxCell id="mYsSGJ8-13ZjClJYV04c-24" value="" style="edgeStyle=orthogonalEdgeStyle;rounded=0;orthogonalLoop=1;jettySize=auto;html=1;" edge="1" parent="dNxyNK7c78bLwvsdeMH5-21" source="mYsSGJ8-13ZjClJYV04c-21" target="mYsSGJ8-13ZjClJYV04c-23">
          <mxGeometry relative="1" as="geometry" />
        </mxCell>
        <mxCell id="mYsSGJ8-13ZjClJYV04c-70" value="SI" style="edgeLabel;html=1;align=center;verticalAlign=middle;resizable=0;points=[];" connectable="0" vertex="1" parent="mYsSGJ8-13ZjClJYV04c-24">
          <mxGeometry x="-0.1713" y="2" relative="1" as="geometry">
            <mxPoint as="offset" />
          </mxGeometry>
        </mxCell>
        <mxCell id="mYsSGJ8-13ZjClJYV04c-83" value="&lt;span style=&quot;font-size: 15px;&quot;&gt;SI&lt;/span&gt;" style="edgeLabel;html=1;align=center;verticalAlign=middle;resizable=0;points=[];" connectable="0" vertex="1" parent="mYsSGJ8-13ZjClJYV04c-24">
          <mxGeometry x="-0.204" y="6" relative="1" as="geometry">
            <mxPoint as="offset" />
          </mxGeometry>
        </mxCell>
        <mxCell id="mYsSGJ8-13ZjClJYV04c-21" value="&lt;font style=&quot;font-size: 11px;&quot;&gt;confirma&amp;nbsp;&amp;nbsp;&lt;/font&gt;&lt;div&gt;&lt;font style=&quot;font-size: 11px;&quot;&gt;agendamiento&lt;/font&gt;&lt;/div&gt;&lt;div&gt;&lt;font style=&quot;font-size: 11px;&quot;&gt;&amp;nbsp;de zona&lt;/font&gt;&lt;/div&gt;&lt;div&gt;&lt;font style=&quot;font-size: 11px;&quot;&gt;&amp;nbsp;comun&amp;nbsp;&lt;/font&gt;&lt;/div&gt;" style="rhombus;whiteSpace=wrap;html=1;rounded=1;" vertex="1" parent="dNxyNK7c78bLwvsdeMH5-21">
          <mxGeometry x="1300" y="80" width="115" height="82.5" as="geometry" />
        </mxCell>
        <mxCell id="mYsSGJ8-13ZjClJYV04c-23" value="envÃ­a la confirmaciÃ³n y autorizaciÃ³n&amp;nbsp;" style="rounded=1;whiteSpace=wrap;html=1;" vertex="1" parent="dNxyNK7c78bLwvsdeMH5-21">
          <mxGeometry x="1467" y="92.5" width="120" height="60" as="geometry" />
        </mxCell>
        <mxCell id="PdhqAu_Ncj2ry6hg3tuX-27" value="le avisa a los guardas&amp;nbsp; de seguridad&amp;nbsp;" style="whiteSpace=wrap;html=1;rounded=1;" vertex="1" parent="dNxyNK7c78bLwvsdeMH5-21">
          <mxGeometry x="1155" y="340" width="120" height="60" as="geometry" />
        </mxCell>
        <mxCell id="PdhqAu_Ncj2ry6hg3tuX-39" value="" style="edgeStyle=orthogonalEdgeStyle;rounded=0;orthogonalLoop=1;jettySize=auto;html=1;" edge="1" parent="dNxyNK7c78bLwvsdeMH5-21" source="PdhqAu_Ncj2ry6hg3tuX-36" target="PdhqAu_Ncj2ry6hg3tuX-38">
          <mxGeometry relative="1" as="geometry" />
        </mxCell>
        <mxCell id="PdhqAu_Ncj2ry6hg3tuX-36" value="&lt;font style=&quot;font-size: 11px;&quot;&gt;revisa si hay&amp;nbsp;&lt;/font&gt;&lt;div&gt;&lt;font style=&quot;font-size: 11px;&quot;&gt;manuales&amp;nbsp;&lt;/font&gt;&lt;/div&gt;&lt;div&gt;&lt;font style=&quot;font-size: 11px;&quot;&gt;de convivencia&amp;nbsp;&lt;/font&gt;&lt;/div&gt;" style="rhombus;whiteSpace=wrap;html=1;" vertex="1" parent="dNxyNK7c78bLwvsdeMH5-21">
          <mxGeometry x="670" y="455" width="140" height="120" as="geometry" />
        </mxCell>
        <mxCell id="PdhqAu_Ncj2ry6hg3tuX-38" value="se lo envÃ­a al casillero" style="whiteSpace=wrap;html=1;" vertex="1" parent="dNxyNK7c78bLwvsdeMH5-21">
          <mxGeometry x="1050" y="485" width="120" height="60" as="geometry" />
        </mxCell>
      </root>
    </mxGraphModel>
  </diagram>
  <diagram id="iUsIBZaYjiNXGwIU_HRj" name="PÃ¡gina-2">
    <mxGraphModel grid="1" page="1" gridSize="10" guides="1" tooltips="1" connect="1" arrows="1" fold="1" pageScale="1" pageWidth="827" pageHeight="1169" math="0" shadow="0">
      <root>
        <mxCell id="0" />
        <mxCell id="1" parent="0" />
      </root>
    </mxGraphModel>
  </diagram>
</mxfile>
